inDegrees=no
num_controls=7
num_derivatives=13
num_iterations=100
num_multipliers=7
num_parameters=0
num_slacks=7
num_states=26
objective=0.454542
objective_accelerations=0.043734
objective_balance=0.000789
objective_effort=0.035956
objective_height=0.367951
objective_ligament=0.006113
solver_duration=1135.862350
status=Solve_Succeeded
success=true
DataType=double
version=3
OpenSimVersion=4.5
endheader
time	/jointset/ground_pelvis/pelvis_tilt/value	/jointset/ground_pelvis/pelvis_tx/value	/jointset/ground_pelvis/pelvis_ty/value	/jointset/hip_r/hip_flexion_r/value	/jointset/hip_r/hip_adduction_r/value	/jointset/hip_r/hip_rotation_r/value	/jointset/back/lumbar_extension/value	/jointset/patellofemoral_r/patellar_flexion_r/value	/jointset/knee_r/knee_flexion_r/value	/jointset/knee_r/knee_adduction_r/value	/jointset/knee_r/knee_rotation_r/value	/jointset/ankle_r/ankle_angle_r/value	/jointset/subtalar_r/subtalar_angle_r/value	/jointset/ground_pelvis/pelvis_tilt/speed	/jointset/ground_pelvis/pelvis_tx/speed	/jointset/ground_pelvis/pelvis_ty/speed	/jointset/hip_r/hip_flexion_r/speed	/jointset/hip_r/hip_adduction_r/speed	/jointset/hip_r/hip_rotation_r/speed	/jointset/back/lumbar_extension/speed	/jointset/patellofemoral_r/patellar_flexion_r/speed	/jointset/knee_r/knee_flexion_r/speed	/jointset/knee_r/knee_adduction_r/speed	/jointset/knee_r/knee_rotation_r/speed	/jointset/ankle_r/ankle_angle_r/speed	/jointset/subtalar_r/subtalar_angle_r/speed	/forceset/tau_hip_flexion_r	/forceset/tau_hip_adduction_r	/forceset/tau_hip_rotation_r	/forceset/tau_knee_flexion_r	/forceset/tau_ankle_angle_r	/forceset/tau_subtalar_angle_r	/forceset/tau_lumbar_extension	lambda_cid13_p0	lambda_cid14_p0	lambda_cid14_p1	lambda_cid14_p2	lambda_cid14_p3	lambda_cid14_p4	lambda_cid14_p5	/jointset/ground_pelvis/pelvis_tilt/accel	/jointset/ground_pelvis/pelvis_tx/accel	/jointset/ground_pelvis/pelvis_ty/accel	/jointset/hip_r/hip_flexion_r/accel	/jointset/hip_r/hip_adduction_r/accel	/jointset/hip_r/hip_rotation_r/accel	/jointset/back/lumbar_extension/accel	/jointset/patellofemoral_r/patellar_flexion_r/accel	/jointset/knee_r/knee_flexion_r/accel	/jointset/knee_r/knee_adduction_r/accel	/jointset/knee_r/knee_rotation_r/accel	/jointset/ankle_r/ankle_angle_r/accel	/jointset/subtalar_r/subtalar_angle_r/accel	gamma_cid13_p0	gamma_cid14_p0	gamma_cid14_p1	gamma_cid14_p2	gamma_cid14_p3	gamma_cid14_p4	gamma_cid14_p5
0	-0.00756182143837239	0.1319172426203926	0.9332406328627237	0.1934211968871041	-0.2298231076992549	-0.2397629852596585	-0.2903787966825928	0.2311786273363458	0.2311786273363406	0.1361858520461147	0.1724828848423883	0.089344008118978	0.06180910718429738	0	0	0	0	0	0	0	0	0	0	0	0	0	0.1024045708759982	-0.05371834815516749	0.003459511119951905	-0.2413476804745897	0.1221072439560564	-0.0972836824026921	-0.02344325805632573	-29.92167599639399	-7.461245842331167	-38.54873853267063	0.8473450528869537	-0.1287744875810624	-610.2045563011786	37.14170907681194	-1.534748925571285	-1.716186785096075	-0.813628806199082	9.211420446808324	-0.3017754533877371	2.52396010419108	-6.233576423527894	9.895196128617249	9.895196128617258	-1.885768955702586	0.267119798637415	2.739936025337653	0.3819190925299138	3.864961114667464e-08	1.756820375912708e-08	-3.261261410766335e-07	1.506390720399167e-07	1.400042929565393e-08	1.325307196022727e-07	-2.217490662629184e-07
0.01	-0.007633172003686965	0.1318330432789142	0.9332011001957086	0.1938689417717041	-0.2298367075320594	-0.2396357363393108	-0.2906910693075316	0.2316635670476709	0.2316635670476717	0.1360912037806015	0.1724917579382956	0.08947908362107318	0.06182947399974433	-0.01423549877045238	-0.01670210888731438	-0.007883492405588409	0.08908839353175339	-0.002718649703591646	0.02532641671710826	-0.06198439004349034	0.09652921546394952	0.09652921546394956	-0.01880432311504979	0.00176499652113806	0.02695224843174698	0.004058937065703866	0.09950489931535779	-0.0664888151141374	0.003745846637406594	-0.2405025888223503	0.1192745867862315	-0.08604546788194097	-0.0203747170483145	-29.92667692100938	-7.821510711702929	-33.54195735965414	-0.1668763959812166	-1.283807792559754	-611.90991674908	47.60554358013661	-1.362761129193416	-1.62655622944475	-0.7722268019648177	8.688460236792814	-0.2567344466796957	2.518512819885709	-6.110350052929534	9.462967505341814	9.462967505341844	-1.85900314064333	0.1297788536945554	2.663448650638742	0.4156835606913635	5.376371506691315e-08	3.751060509622151e-09	-4.206031651584728e-07	1.936869480320793e-07	3.773002306702559e-08	4.121228718891415e-09	-2.897071820281432e-07
0.02	-0.007845839711992353	0.1315859561907833	0.9330834291357921	0.1951937528777001	-0.2298774588054613	-0.2392589171789044	-0.2916090817845409	0.2331000355636423	0.2331000355636417	0.1358122644536359	0.1725179988543983	0.08988179748719713	0.06188999069526851	-0.02826342859732574	-0.03257754933048909	-0.01562767858025504	0.1754132442808727	-0.005430288120569043	0.04991404801081414	-0.1211479704137653	0.1903057609302193	0.1903057609302194	-0.0368582122795824	0.003473564035979578	0.05352767280531353	0.008029976015435567	0.09660522775464797	-0.07925928207312978	0.00403218215489087	-0.2396574971701605	0.1164419296163812	-0.07480725336122512	-0.01730617604033773	-29.94123503520862	-8.105624361186113	-28.5383202209964	-1.161773459138477	-2.422734896731897	-612.4100586940921	57.8324290550925	-1.493235136855382	-1.550853096268227	-0.7857675600147213	8.65871189028152	-0.3003731960648938	2.376203019510605	-5.669414488884764	9.344662129081335	9.344662129081332	-1.735682165599141	0.2558339973781215	2.664571213701478	0.3643394693354477	6.887781898715167e-08	-1.006608273988278e-08	-5.150801892403121e-07	2.367348240242418e-07	6.145961683839724e-08	-1.242882621644899e-07	-3.576652977933679e-07
0.03	-0.008197614353789733	0.1311835605798063	0.9328887414382542	0.197368884675324	-0.2299456708704744	-0.238640058304458	-0.293105080236282	0.2354609899465326	0.2354609899465304	0.1353574425143015	0.1725614211920067	0.09054757261318111	0.06198908080595958	-0.04200706175384602	-0.04783171597011608	-0.02330708711456346	0.2591972557460883	-0.008231092494002452	0.07378390156163957	-0.1776662471000571	0.2814559373466174	0.2814559373466177	-0.05391882806183013	0.005163601018926269	0.07948710462931861	0.01172558842271311	0.09104025313158697	-0.07647221962837643	0.004611784244474701	-0.2337856875568722	0.1085837241207924	-0.07320214535614636	-0.01272456039009236	-29.96468021822571	-10.5500313820015	-28.18637614679648	-1.312510977467732	-1.257266302653206	-612.837462336836	57.56662474516236	-1.302257661829826	-1.502207526010852	-0.7586368046870838	8.175867891596857	-0.2728054839741842	2.381357331859054	-5.585213333171383	8.935804816133844	8.935804816133894	-1.663207241692582	0.1185438007816335	2.540600372859482	0.3627510670595844	7.636270154646882e-08	-2.230600655309014e-08	-5.842994315719163e-07	2.268550799362468e-07	7.635775598201936e-08	-2.151207997069228e-07	-3.752060061427829e-07
